<?xml version="1.0" encoding="UTF-8"?>
<svg id="Capa_2" data-name="Capa 2" xmlns="http://www.w3.org/2000/svg" viewBox="0 0 163 83.4">
  <defs>
    <style>
      .cls-1 {
        fill: #1d1d1f;
      }
    </style>
  </defs>
  <g id="Capa_1-2" data-name="Capa 1">
    <g>
      <path class="cls-1" d="M110.16,40.53l.66-1.75h-.02l6.36-16.72,1.26-3.27,2.07-5.43.05-.12.19-.43c1.13-2.92.73-6.14-1.01-8.74-.78-1.17-1.8-2.12-2.96-2.82-1.48-.89-3.19-1.3-4.9-1.26l-11.41.25c-1.28.12-2.47.7-3.36,1.64-.69.73-1.16,1.65-1.35,2.63,0,.04-.01.07-.01.11-.07,2,.43,3.58,1.49,4.69,1.45,1.52,3.43,1.59,3.69,1.59l2.84-.03h0s5.88-.18,5.88-.18l-9.72,22.93-5.34.2-28.24,1.12-7.08.3,14.1-30.21h0s.32-.57.15-1.41l-.18-.7c-.04-.16-.1-.32-.2-.45-.27-.39-.71-.62-1.2-.61l-15.36.84c-.79.02-1.54.45-1.89,1.16,0,0,0,.01,0,.02l-2.83,5.47c-.3.61-.36,1.31-.14,1.92.33.97,1.25,1.64,2.26,1.64.05,0,.11,0,.15,0l.83-.05c.06-.01.12-.02.16-.01.18-.01.33.03.47.1.97.36.48,1.42.48,1.42l-10.82,23.45h.02l-2.14,4.71h0l-1.34,2.92c-.62,1.36.41,2.89,1.9,2.81l6.35-.35s.01,0,.02,0c1.18.14.91,1.6.91,1.6,0,0,0,0,.02.01-.28,1.57.07,3.08,1.1,4.11,1.94,1.96,5.6,1.46,8.16-1.11,1.17-1.18,1.9-2.58,2.17-3.94.33-.88,1.03-1.29,1.23-1.4l22.28-1.21s.1.06.19.07c1.18.14.91,1.6.91,1.6,0,0,0,0,.02.01-.28,1.57.07,3.08,1.1,4.11,1.94,1.96,5.6,1.46,8.16-1.11,1.17-1.18,1.9-2.58,2.17-3.94.39-1.03,1.29-1.43,1.29-1.43l.07-.06,3.34-.18s.06-.02.09-.03c4.56-1.11,6.32-3.46,6.89-4.53ZM57.41,51.17c-.97.9-2.35,1-3.08.21-.73-.79-.53-2.17.44-3.07.97-.9,2.35-1,3.08-.21.73.79.54,2.17-.44,3.07ZM93.86,49.2c-.97.9-2.35,1-3.08.21-.73-.79-.53-2.17.44-3.07.97-.9,2.35-1,3.08-.21.73.79.53,2.17-.44,3.07ZM103.05,42.07l-55.33,2.36c-.85-.11-1.4-1.03-1.02-1.85l1.19-2.62h-.02l6.05-13.53,7.08-15.56c.29-.64-.2-1.37-.9-1.33l-3.81.21c-.56.03-.95-.56-.7-1.07l1.45-2.67c.12-.24.36-.4.62-.41l10.62-.58c.66-.04,1.12.65.84,1.26l-11.42,24.5s-.04.06-.05.09l-2.43,5.26c-.16.35-.24.74-.19,1.13.06.47.3,1.02,1,1.36.35.17.74.24,1.13.22l42.75-1.94h.03s2.09-.05,3.4-2.26l.08-.16,10.33-24.91c.32-.85-.03-1.52-.2-1.78-.35-.51-.89-.81-1.5-.81l-11.22.29c-1.13-.1-2.02-1.03-2.05-2.2-.03-1.25.95-2.29,2.19-2.33l10.96-.3h.18c2.07.02,4.01,1.07,5.18,2.81,1.18,1.76,1.43,4,.67,5.98l-1.25,3.24-9.26,24.32c-.87,1.74-2.5,2.97-4.41,3.3Z"/>
      <path class="cls-1" d="M36.05,76.17l-.83,5.39-12.93.67,2.94-18.87,7.14-.37-2.11,13.47,5.79-.3Z"/>
      <path class="cls-1" d="M52.47,73.09l.88,5.75c-2.06,1.56-4.4,2.46-6.76,2.58-6.3.33-10.29-3.86-9.44-9.31.86-5.45,6.23-10.13,12.52-10.45,2.37-.12,4.48.55,6.05,1.92l-2.68,5.93c-.61-.91-1.68-2.14-3.82-2.03-2.26.12-4.58,1.91-4.94,4.27-.36,2.3,1.31,3.94,3.65,3.82,2.06-.12,3.63-1.51,4.53-2.47Z"/>
      <path class="cls-1" d="M94.09,78.5l-8.02.42-2.74-5.2-.83,5.39-7.14.37,2.94-18.87,11.15-.58c3.99-.21,5.77,2.76,5.2,6.41-.43,2.61-1.96,4.97-4.25,6.21l3.69,5.85ZM87.47,67.04c.21-1.37-.49-1.98-1.46-1.93l-1.34.07-.64,4.04,1.34-.07c.98-.05,1.89-.71,2.1-2.11Z"/>
      <path class="cls-1" d="M114.37,77.44l-8.02.42-2.74-5.2-.83,5.39-7.14.37,2.94-18.87,11.15-.58c3.99-.21,5.77,2.76,5.2,6.41-.42,2.61-1.96,4.97-4.25,6.21l3.69,5.85ZM107.76,65.98c.21-1.37-.49-1.98-1.46-1.93l-1.34.07-.64,4.04,1.34-.07c.98-.05,1.89-.71,2.1-2.11Z"/>
      <path class="cls-1" d="M115.93,77.36l2.94-18.87,7.14-.37-2.94,18.87-7.14.37Z"/>
      <path class="cls-1" d="M143.85,57.2l-.83,5.39-4.46.23-2.12,13.47-7.14.37,2.11-13.47-4.46.23.83-5.39,16.05-.83Z"/>
      <path class="cls-1" d="M162.88,65.56c-.86,5.45-6.14,10.12-11.8,10.41-5.66.29-9.57-3.9-8.71-9.35.86-5.45,6.14-10.12,11.8-10.41,5.66-.29,9.57,3.91,8.71,9.35ZM155.75,65.94c.36-2.25-.75-3.97-2.48-3.88-1.73.09-3.41,1.96-3.76,4.2-.35,2.25.75,3.97,2.48,3.88,1.72-.09,3.41-1.96,3.76-4.2Z"/>
      <path class="cls-1" d="M12.39,72l1.89,10.65,7.13-.37-4.5-18.48-6.52.34L0,83.4l7.1-.37,5.29-11.02Z"/>
      <path class="cls-1" d="M65.46,69.22l1.89,10.65,7.13-.37-4.5-18.48-6.52.34-10.39,19.25,7.1-.37,5.29-11.02Z"/>
    </g>
  </g>
</svg>